<?xml version="1.0" encoding="UTF-8"?><svg id="a" xmlns="http://www.w3.org/2000/svg" viewBox="0 0 1417.32 1417.32"><defs><style>.b{fill:#fff;}.c{opacity:.5;}</style></defs><g><path class="b" d="M715.33,550.16c-187.5,0-339.5,134.08-339.5,299.48,0,136.61,103.69,251.84,245.43,287.82,37.12,9.42,76.47-7.2,94.46-41.01,28.9-54.32,91.27-91.91,163.55-91.91,17.64,0,34.68,2.24,50.78,6.42,39.54,10.26,80.77-8.44,98.35-45.31,17.02-35.68,26.42-74.88,26.42-116.02,0-165.4-152-299.48-339.5-299.48Zm-114.24,78.74c36.36,0,65.83,29.48,65.83,65.84s-29.48,65.83-65.83,65.83-65.83-29.48-65.83-65.83,29.47-65.84,65.83-65.84Zm-116.18,273.77c-36.36,0-65.83-29.48-65.83-65.84s29.47-65.83,65.83-65.83,65.83,29.48,65.83,65.83-29.48,65.84-65.83,65.84Zm127.8,156.09c-43.85,0-79.39-35.54-79.39-79.39s35.54-79.39,79.39-79.39,79.39,35.54,79.39,79.39-35.54,79.39-79.39,79.39Zm315.62-104.56c-36.36,0-65.83-29.48-65.83-65.83s29.48-65.83,65.83-65.83,65.83,29.48,65.83,65.83-29.48,65.83-65.83,65.83Z"/><g><path class="b" d="M646.73,366.89c-2.58,30.67-6.01,58.78-9.78,83.98,70.93,2.97,137.19-35.28,170.08-98.2-23.71-9.34-49.77-20.42-77.62-33.52-22.85,22.93-51.41,39.41-82.69,47.74Z"/><path class="b" d="M645.36,353.83c27.78-7.39,53.14-22.03,73.43-42.39-16.5-7.76-33.7-16.31-51.48-25.75-8.24-4.38-18.18,1.36-18.51,10.69-.71,20.12-1.91,39.29-3.44,57.46Z"/><path class="b" d="M726.45,527.56c86.31,0,165.07,28.42,224.98,75.22-45.89-79.48-91.78-158.96-137.67-238.45-32.89,62.91-99.15,101.17-170.08,98.2,12.99,22.5,25.98,45,38.97,67.5,14.34-1.63,28.96-2.48,43.8-2.48Z"/></g></g><g><g><g class="c"><polygon class="b" points="124.14 355.68 691.48 102.08 694.99 776.18 124.14 1025.04 124.14 355.68"/></g><g class="c"><polygon class="b" points="731.17 776.18 1306.52 1033.53 1306.52 349.5 727.67 102.08 731.17 776.18"/></g><g class="c"><polygon class="b" points="137.93 1054.49 707.2 1322.18 1284.12 1062.98 708.77 805.63 137.93 1054.49"/></g></g><path class="b" d="M710.49,1332.28L106.35,1062.81V352.64L708.27,85.04l602.7,252.82v726.09l-600.48,268.33ZM151.85,1033.28l558.63,249.18,555-248.01V368.12L708.79,134.6,151.85,382.2v651.08Z"/></g></svg>