<?xml version="1.0" encoding="UTF-8"?><svg id="Layer_1" xmlns="http://www.w3.org/2000/svg" xmlns:xlink="http://www.w3.org/1999/xlink" viewBox="0 0 1024 1024"><defs><style>.cls-1{fill:#4a148d;}.cls-2{fill:url(#linear-gradient);}.cls-3{fill:#ba68c8;}</style><linearGradient id="linear-gradient" x1="166.05" y1="709.77" x2="830.45" y2="709.77" gradientUnits="userSpaceOnUse"><stop offset=".64" stop-color="#7b1fa2"/><stop offset="1" stop-color="#4a148d"/></linearGradient></defs><path class="cls-3" d="M512,50.77h0c-98.78,0-178.86,80.08-178.86,178.86V492.1c0,98.78,80.08,178.86,178.86,178.86h0c98.78,0,178.86-80.08,178.86-178.86V229.63c0-98.78-80.08-178.86-178.86-178.86Zm110.17,431.11c0,60.84-49.32,110.17-110.17,110.17h0c-60.84,0-110.17-49.32-110.17-110.17V239.85c0-60.84,49.32-110.17,110.17-110.17h0c60.84,0,110.17,49.32,110.17,110.17v242.03Z"/><circle class="cls-1" cx="830.45" cy="522.45" r="43.5"/><path class="cls-2" d="M830.45,625.06l-72.6-41.92c-92.63,243.38-509.79,208.66-509.79-104.19h-82.01c0,212.37,146.67,326.96,304.94,343.77v117.84h82.01v-117.86c117.03-12.44,227.71-78.31,277.45-197.66Z"/></svg>