<?xml version="1.0" encoding="UTF-8"?><svg id="Layer_1" xmlns="http://www.w3.org/2000/svg" xmlns:xlink="http://www.w3.org/1999/xlink" viewBox="0 0 1024 1024"><defs><style>.cls-1{fill:#531b92;}.cls-2{fill:#9239b0;}.cls-3{fill:#4e178f;}.cls-4{fill:#521a91;}.cls-5{fill:#862ba8;}.cls-6{fill:#7c20a3;}.cls-7{fill:#974eb5;}.cls-8{fill:#a054ba;}.cls-9{fill:#a155bb;}.cls-10{fill:#984eb6;}.cls-11{fill:#561d93;}.cls-12{fill:#4a148d;}.cls-13{fill:#6b2d9f;}.cls-14{fill:#b866c7;}.cls-15{fill:#b967c7;}.cls-16{fill:#924ab3;}.cls-17{fill:#9b51b8;}.cls-18{fill:#ae5fc2;}.cls-19{fill:#a24cb9;}.cls-20{fill:#5a2096;}.cls-21{fill:#ac58c0;}.cls-22{fill:#8a44ae;}.cls-23{fill:#803daa;}.cls-24{fill:#6d2ea0;}.cls-25{fill:#9c51b8;}.cls-26{fill:#ae5ac1;}.cls-27{fill:#9f49b8;}.cls-28{fill:#6f30a1;}.cls-29{fill:#a14bb9;}.cls-30{fill:#8a30ab;}.cls-31{fill:#b161c3;}.cls-32{fill:#9c46b6;}.cls-33{fill:#8c45b0;}.cls-34{clip-path:url(#clippath-2);}.cls-35{fill:#a95bbf;}.cls-36{fill:#8943ae;}.cls-37{fill:#8c32ac;}.cls-38{fill:#7b1fa2;}.cls-39{fill:#a75abe;}.cls-40{fill:#b262c4;}.cls-41{fill:#833eab;}.cls-42{fill:#5c2297;}.cls-43{fill:#852aa8;}.cls-44{fill:#b665c6;}.cls-45{fill:#872da9;}.cls-46{fill:#b360c4;}.cls-47{fill:#7f24a5;}.cls-48{fill:#8d33ad;}.cls-49{fill:#ad59c0;}.cls-50{fill:#9840b3;}.cls-51{fill:#571e94;}.cls-52{fill:#aa56bf;}.cls-53{fill:#7736a5;}.cls-54{fill:#7a38a7;}.cls-55{fill:#a04ab8;}.cls-56{fill:#944bb4;}.cls-57{fill:#813eaa;}.cls-58{fill:#8f36ae;}.cls-59{fill:#5e2398;}.cls-60{fill:#7535a4;}.cls-61{fill:#4b158e;}.cls-62{fill:#8227a6;}.cls-63{fill:#8842ad;}.cls-64{fill:#63279a;}.cls-65{fill:#8429a7;}.cls-66{fill:#672a9c;}.cls-67{fill:#692b9d;}.cls-68{fill:#7f23a4;}.cls-69{fill:#9048b2;}.cls-70{fill:#b766c6;}.cls-71{fill:#a651bc;}.cls-72{fill:#ab57bf;}.cls-73{fill:#b15ec3;}.cls-74{fill:#6e2fa0;}.cls-75{fill:#8f47b1;}.cls-76{fill:#8e47b1;}.cls-77{fill:#a357bc;}.cls-78{fill:#6c2e9f;}.cls-79{fill:#b562c5;}.cls-80{fill:#a256bb;}.cls-81{fill:#6a2c9e;}.cls-82{fill:#66299c;}.cls-83{fill:#8b31ac;}.cls-84{fill:#7434a3;}.cls-85{fill:#9d47b7;}.cls-86{fill:#af5bc1;}.cls-87{fill:#7837a5;}.cls-88{fill:#9a50b7;}.cls-89{fill:#612599;}.cls-90{fill:#943bb1;}.cls-91{fill:#963eb2;}.cls-92{fill:#591f95;}.cls-93{fill:#934ab3;}.cls-94{fill:#a85abe;}.cls-95{fill:#843fab;}.cls-96{fill:#7031a1;}.cls-97{fill:#9149b2;}.cls-98{fill:#8b44af;}.cls-99{fill:#b05cc2;}.cls-100{fill:#b764c6;}.cls-101{fill:#7132a2;}.cls-102{fill:#b663c5;}.cls-103{fill:#9e48b7;}.cls-104{fill:#551c93;}.cls-105{fill:#933ab0;}.cls-106{fill:#4f1890;}.cls-107{fill:#511991;}.cls-108{fill:#b060c3;}.cls-109{fill:none;}.cls-110{fill:#862ca9;}.cls-111{fill:#9941b4;}.cls-112{fill:#ab5dc0;}.cls-113{fill:#b461c4;}.cls-114{fill:#5b2196;}.cls-115{fill:#62269a;}.cls-116{fill:#a457bc;}.cls-117{fill:#954cb4;}.cls-118{fill:#9b45b6;}.cls-119{fill:#a853bd;}.cls-120{clip-path:url(#clippath-3);}.cls-121{fill:#7333a3;}.cls-122{fill:#a44fbb;}.cls-123{fill:#9f54ba;}.cls-124{fill:#7938a6;}.cls-125{fill:#a34eba;}.cls-126{fill:#b05dc2;}.cls-127{fill:#9138af;}.cls-128{fill:#8328a7;}.cls-129{fill:#501990;}.cls-130{fill:#892faa;}.cls-131{fill:#953db2;}.cls-132{fill:#5d2297;}.cls-133{fill:#973fb3;}.cls-134{fill:#b25fc3;}.cls-135{fill:#64289b;}.cls-136{fill:#8025a5;}.cls-137{fill:#7c3aa8;}.cls-138{fill:#a955be;}.cls-139{fill:#a954bd;}.cls-140{fill:#7e22a4;}.cls-141{fill:#9b44b5;}.cls-142{fill:#a24dba;}.cls-143{fill:#a752bc;}.cls-144{fill:#b363c4;}.cls-145{fill:#b564c5;}.cls-146{fill:#9037af;}.cls-147{fill:#8d34ad;}.cls-148{fill:#682b9d;}.cls-149{fill:#7d21a3;}.cls-150{fill:#7f3ca9;}.cls-151{fill:#7b39a7;}.cls-152{fill:#7e3ba9;}.cls-153{fill:#af60c2;}.cls-154{fill:#aa5cbf;}.cls-155{fill:#8641ac;}.cls-156{fill:#8d46b0;}.cls-157{fill:#8540ac;}.cls-158{fill:#882eaa;}.cls-159{fill:#ba68c8;}.cls-160{fill:#943cb1;}.cls-161{fill:#ad5ec1;}.cls-162{fill:#994fb6;}.cls-163{fill:#a659bd;}.cls-164{fill:#964db5;}.cls-165{fill:#9e53b9;}.cls-166{fill:#581f94;}.cls-167{fill:#8741ad;}.cls-168{fill:#7635a4;}.cls-169{fill:#602599;}.cls-170{fill:#9d52b9;}.cls-171{fill:#a550bb;}.cls-172{fill:#4d168f;}.cls-173{fill:#541c92;}.cls-174{fill:#b765c6;}.cls-175{fill:#7232a2;}.cls-176{fill:#5f2498;}.cls-177{fill:#9a42b4;}.cls-178{fill:#b463c5;}.cls-179{fill:#a558bd;}.cls-180{fill:#8e35ae;}.cls-181{fill:#ac5dc1;}.cls-182{fill:#8126a6;}.cls-183{fill:#7d3ba8;}.cls-184{fill:#65289b;}.cls-185{fill:#4c168e;}</style><clipPath id="clippath-2"><path class="cls-109" d="M453.36,837.27h0c-41.78,41.92-109.52,41.92-151.3,0l-228.33-229.11c-41.78-41.92-41.78-109.89,0-151.81h0c41.78-41.92,109.52-41.92,151.3,0l228.33,229.11c41.78,41.92,41.78,109.89,0,151.81Z"/></clipPath><clipPath id="clippath-3"><path class="cls-109" d="M304.78,837.91l-3.46-3.47c-40.94-41.08-40.94-107.67,0-148.75L806.17,179.12c40.94-41.08,107.31-41.08,148.24,0l3.46,3.47c40.94,41.08,40.94,107.67,0,148.75l-504.85,506.57c-40.94,41.08-107.31,41.08-148.24,0Z"/></clipPath></defs><g class="cls-34"><polygon class="cls-159" points="419.18 879.19 495.14 800.42 495.14 879.19 419.18 879.19"/><polygon class="cls-159" points="412.29 879.19 495.14 793.27 495.14 800.42 419.18 879.19 412.29 879.19"/><polygon class="cls-15" points="405.39 879.19 495.14 786.12 495.14 793.27 412.29 879.19 405.39 879.19"/><polygon class="cls-14" points="398.5 879.19 495.14 778.97 495.14 786.12 405.39 879.19 398.5 879.19"/><polygon class="cls-174" points="391.61 879.19 495.14 771.83 495.14 778.97 398.5 879.19 391.61 879.19"/><polygon class="cls-100" points="384.72 879.19 495.14 764.68 495.14 771.83 391.61 879.19 384.72 879.19"/><polygon class="cls-102" points="377.83 879.19 495.14 757.53 495.14 764.68 384.72 879.19 377.83 879.19"/><polygon class="cls-79" points="370.93 879.19 495.14 750.38 495.14 757.53 377.83 879.19 370.93 879.19"/><polygon class="cls-113" points="364.04 879.19 495.14 743.24 495.14 750.38 370.93 879.19 364.04 879.19"/><polygon class="cls-46" points="357.15 879.19 495.14 736.09 495.14 743.24 364.04 879.19 357.15 879.19"/><polygon class="cls-134" points="350.26 879.19 495.14 728.94 495.14 736.09 357.15 879.19 350.26 879.19"/><polygon class="cls-73" points="343.37 879.19 495.14 721.8 495.14 728.94 350.26 879.19 343.37 879.19"/><polygon class="cls-126" points="339.62 879.19 338 877.61 495.14 714.65 495.14 721.8 343.37 879.19 339.62 879.19"/><polygon class="cls-99" points="338 877.61 334.44 874.16 492.34 710.41 495.14 713.13 495.14 714.65 338 877.61"/><polygon class="cls-86" points="334.44 874.16 330.88 870.7 488.78 706.95 492.34 710.41 334.44 874.16"/><polygon class="cls-26" points="330.88 870.7 327.32 867.25 485.22 703.5 488.78 706.95 330.88 870.7"/><polygon class="cls-49" points="327.32 867.25 323.76 863.79 481.66 700.04 485.22 703.5 327.32 867.25"/><polygon class="cls-21" points="323.76 863.79 320.2 860.34 478.1 696.59 481.66 700.04 323.76 863.79"/><polygon class="cls-72" points="320.2 860.34 316.64 856.88 474.54 693.13 478.1 696.59 320.2 860.34"/><polygon class="cls-52" points="316.64 856.88 313.08 853.42 470.98 689.67 474.54 693.13 316.64 856.88"/><polygon class="cls-138" points="313.08 853.42 309.52 849.97 467.42 686.22 470.98 689.67 313.08 853.42"/><polygon class="cls-139" points="309.52 849.97 305.96 846.51 463.86 682.76 467.42 686.22 309.52 849.97"/><polygon class="cls-119" points="305.96 846.51 302.4 843.06 460.3 679.31 463.86 682.76 305.96 846.51"/><polygon class="cls-143" points="302.4 843.06 298.84 839.6 456.74 675.85 460.3 679.31 302.4 843.06"/><polygon class="cls-71" points="298.84 839.6 295.28 836.14 453.18 672.39 456.74 675.85 298.84 839.6"/><polygon class="cls-171" points="295.28 836.14 291.72 832.69 449.62 668.94 453.18 672.39 295.28 836.14"/><polygon class="cls-122" points="291.72 832.69 288.16 829.23 446.06 665.48 449.62 668.94 291.72 832.69"/><polygon class="cls-125" points="288.16 829.23 284.6 825.78 442.5 662.03 446.06 665.48 288.16 829.23"/><polygon class="cls-142" points="284.6 825.78 281.04 822.32 438.94 658.57 442.5 662.03 284.6 825.78"/><polygon class="cls-19" points="281.04 822.32 277.48 818.86 435.38 655.11 438.94 658.57 281.04 822.32"/><polygon class="cls-29" points="277.48 818.86 273.92 815.41 431.82 651.66 435.38 655.11 277.48 818.86"/><polygon class="cls-55" points="273.92 815.41 270.36 811.95 428.26 648.2 431.82 651.66 273.92 815.41"/><polygon class="cls-27" points="270.36 811.95 266.8 808.5 424.71 644.75 428.26 648.2 270.36 811.95"/><polygon class="cls-103" points="266.8 808.5 263.24 805.04 421.15 641.29 424.71 644.75 266.8 808.5"/><polygon class="cls-85" points="263.24 805.04 259.68 801.59 417.59 637.83 421.15 641.29 263.24 805.04"/><polygon class="cls-32" points="259.68 801.59 256.12 798.13 414.03 634.38 417.59 637.83 259.68 801.59"/><polygon class="cls-118" points="256.12 798.13 252.56 794.67 410.47 630.92 414.03 634.38 256.12 798.13"/><polygon class="cls-141" points="252.56 794.67 249 791.22 406.91 627.47 410.47 630.92 252.56 794.67"/><polygon class="cls-177" points="249 791.22 245.45 787.76 403.35 624.01 406.91 627.47 249 791.22"/><polygon class="cls-111" points="245.45 787.76 241.89 784.31 399.79 620.56 403.35 624.01 245.45 787.76"/><polygon class="cls-50" points="241.89 784.31 238.33 780.85 396.23 617.1 399.79 620.56 241.89 784.31"/><polygon class="cls-133" points="238.33 780.85 234.77 777.39 392.67 613.64 396.23 617.1 238.33 780.85"/><polygon class="cls-91" points="234.77 777.39 231.21 773.94 389.11 610.19 392.67 613.64 234.77 777.39"/><polygon class="cls-131" points="231.21 773.94 227.65 770.48 385.55 606.73 389.11 610.19 231.21 773.94"/><polygon class="cls-160" points="227.65 770.48 224.09 767.03 381.99 603.28 385.55 606.73 227.65 770.48"/><polygon class="cls-90" points="224.09 767.03 220.53 763.57 378.43 599.82 381.99 603.28 224.09 767.03"/><polygon class="cls-105" points="220.53 763.57 216.97 760.11 374.87 596.36 378.43 599.82 220.53 763.57"/><polygon class="cls-2" points="216.97 760.11 213.41 756.66 371.31 592.91 374.87 596.36 216.97 760.11"/><polygon class="cls-127" points="213.41 756.66 209.85 753.2 367.75 589.45 371.31 592.91 213.41 756.66"/><polygon class="cls-146" points="209.85 753.2 206.29 749.75 364.19 586 367.75 589.45 209.85 753.2"/><polygon class="cls-58" points="206.29 749.75 202.73 746.29 360.63 582.54 364.19 586 206.29 749.75"/><polygon class="cls-180" points="202.73 746.29 199.17 742.83 357.07 579.08 360.63 582.54 202.73 746.29"/><polygon class="cls-147" points="199.17 742.83 195.61 739.38 353.51 575.63 357.07 579.08 199.17 742.83"/><polygon class="cls-48" points="195.61 739.38 192.05 735.92 349.95 572.17 353.51 575.63 195.61 739.38"/><polygon class="cls-37" points="192.05 735.92 188.49 732.47 346.39 568.72 349.95 572.17 192.05 735.92"/><polygon class="cls-83" points="188.49 732.47 184.93 729.01 342.83 565.26 346.39 568.72 188.49 732.47"/><polygon class="cls-30" points="184.93 729.01 181.37 725.56 339.27 561.81 342.83 565.26 184.93 729.01"/><polygon class="cls-130" points="181.37 725.56 177.81 722.1 335.71 558.35 339.27 561.81 181.37 725.56"/><polygon class="cls-158" points="177.81 722.1 174.25 718.64 332.15 554.89 335.71 558.35 177.81 722.1"/><polygon class="cls-45" points="174.25 718.64 170.69 715.19 328.6 551.44 332.15 554.89 174.25 718.64"/><polygon class="cls-110" points="170.69 715.19 167.13 711.73 325.04 547.98 328.6 551.44 170.69 715.19"/><polygon class="cls-5" points="167.13 711.73 163.57 708.28 321.48 544.53 325.04 547.98 167.13 711.73"/><polygon class="cls-43" points="163.57 708.28 160.01 704.82 317.92 541.07 321.48 544.53 163.57 708.28"/><polygon class="cls-65" points="160.01 704.82 156.45 701.36 314.36 537.61 317.92 541.07 160.01 704.82"/><polygon class="cls-128" points="156.45 701.36 152.89 697.91 310.8 534.16 314.36 537.61 156.45 701.36"/><polygon class="cls-62" points="152.89 697.91 149.34 694.45 307.24 530.7 310.8 534.16 152.89 697.91"/><polygon class="cls-182" points="149.34 694.45 145.78 691 303.68 527.25 307.24 530.7 149.34 694.45"/><polygon class="cls-136" points="145.78 691 142.22 687.54 300.12 523.79 303.68 527.25 145.78 691"/><polygon class="cls-47" points="142.22 687.54 138.66 684.08 296.56 520.33 300.12 523.79 142.22 687.54"/><polygon class="cls-68" points="138.66 684.08 135.1 680.63 293 516.88 296.56 520.33 138.66 684.08"/><polygon class="cls-140" points="135.1 680.63 131.54 677.17 289.44 513.42 293 516.88 135.1 680.63"/><polygon class="cls-149" points="131.54 677.17 127.98 673.72 285.88 509.97 289.44 513.42 131.54 677.17"/><polygon class="cls-6" points="127.98 673.72 124.42 670.26 282.32 506.51 285.88 509.97 127.98 673.72"/><polygon class="cls-38" points="124.42 670.26 120.86 666.81 278.76 503.06 282.32 506.51 124.42 670.26"/><polygon class="cls-38" points="120.86 666.81 31.95 580.49 31.95 414.43 187.47 414.43 278.76 503.06 120.86 666.81"/></g><g class="cls-120"><polygon class="cls-12" points="260.39 722.59 481.66 499.82 638.76 656.93 418.21 878.98 260.39 878.98 260.39 722.59"/><polygon class="cls-12" points="481.66 499.82 485.23 496.22 642.33 653.33 638.76 656.93 481.66 499.82"/><polygon class="cls-61" points="485.23 496.22 488.8 492.63 645.9 649.74 642.33 653.33 485.23 496.22"/><polygon class="cls-185" points="488.8 492.63 492.37 489.04 649.47 646.15 645.9 649.74 488.8 492.63"/><polygon class="cls-172" points="492.37 489.04 495.94 485.44 653.04 642.55 649.47 646.15 492.37 489.04"/><polygon class="cls-3" points="495.94 485.44 499.51 481.85 656.61 638.96 653.04 642.55 495.94 485.44"/><polygon class="cls-106" points="499.51 481.85 503.07 478.26 660.18 635.36 656.61 638.96 499.51 481.85"/><polygon class="cls-129" points="503.07 478.26 506.64 474.66 663.75 631.77 660.18 635.36 503.07 478.26"/><polygon class="cls-107" points="506.64 474.66 510.21 471.07 667.32 628.18 663.75 631.77 506.64 474.66"/><polygon class="cls-4" points="510.21 471.07 513.78 467.48 670.89 624.58 667.32 628.18 510.21 471.07"/><polygon class="cls-1" points="513.78 467.48 517.35 463.88 674.46 620.99 670.89 624.58 513.78 467.48"/><polygon class="cls-173" points="517.35 463.88 520.92 460.29 678.03 617.4 674.46 620.99 517.35 463.88"/><polygon class="cls-104" points="520.92 460.29 524.49 456.7 681.6 613.8 678.03 617.4 520.92 460.29"/><polygon class="cls-11" points="524.49 456.7 528.06 453.1 685.16 610.21 681.6 613.8 524.49 456.7"/><polygon class="cls-51" points="528.06 453.1 531.63 449.51 688.73 606.62 685.16 610.21 528.06 453.1"/><polygon class="cls-166" points="531.63 449.51 535.2 445.91 692.3 603.02 688.73 606.62 531.63 449.51"/><polygon class="cls-92" points="535.2 445.91 538.77 442.32 695.87 599.43 692.3 603.02 535.2 445.91"/><polygon class="cls-20" points="538.77 442.32 542.34 438.73 699.44 595.84 695.87 599.43 538.77 442.32"/><polygon class="cls-114" points="542.34 438.73 545.91 435.13 703.01 592.24 699.44 595.84 542.34 438.73"/><polygon class="cls-42" points="545.91 435.13 549.48 431.54 706.58 588.65 703.01 592.24 545.91 435.13"/><polygon class="cls-132" points="549.48 431.54 553.04 427.95 710.15 585.06 706.58 588.65 549.48 431.54"/><polygon class="cls-59" points="553.04 427.95 556.61 424.35 713.72 581.46 710.15 585.06 553.04 427.95"/><polygon class="cls-176" points="556.61 424.35 560.18 420.76 717.29 577.87 713.72 581.46 556.61 424.35"/><polygon class="cls-169" points="560.18 420.76 563.75 417.17 720.86 574.27 717.29 577.87 560.18 420.76"/><polygon class="cls-89" points="563.75 417.17 567.32 413.57 724.43 570.68 720.86 574.27 563.75 417.17"/><polygon class="cls-115" points="567.32 413.57 570.89 409.98 728 567.09 724.43 570.68 567.32 413.57"/><polygon class="cls-64" points="570.89 409.98 574.46 406.39 731.57 563.49 728 567.09 570.89 409.98"/><polygon class="cls-135" points="574.46 406.39 578.03 402.79 735.13 559.9 731.57 563.49 574.46 406.39"/><polygon class="cls-184" points="578.03 402.79 581.6 399.2 738.7 556.31 735.13 559.9 578.03 402.79"/><polygon class="cls-82" points="581.6 399.2 585.17 395.61 742.27 552.71 738.7 556.31 581.6 399.2"/><polygon class="cls-66" points="585.17 395.61 588.74 392.01 745.84 549.12 742.27 552.71 585.17 395.61"/><polygon class="cls-148" points="588.74 392.01 592.31 388.42 749.41 545.53 745.84 549.12 588.74 392.01"/><polygon class="cls-67" points="592.31 388.42 595.88 384.82 752.98 541.93 749.41 545.53 592.31 388.42"/><polygon class="cls-81" points="595.88 384.82 599.45 381.23 756.55 538.34 752.98 541.93 595.88 384.82"/><polygon class="cls-13" points="599.45 381.23 603.02 377.64 760.12 534.75 756.55 538.34 599.45 381.23"/><polygon class="cls-78" points="603.02 377.64 606.58 374.04 763.69 531.15 760.12 534.75 603.02 377.64"/><polygon class="cls-24" points="606.58 374.04 610.15 370.45 767.26 527.56 763.69 531.15 606.58 374.04"/><polygon class="cls-74" points="610.15 370.45 613.72 366.86 770.83 523.97 767.26 527.56 610.15 370.45"/><polygon class="cls-28" points="613.72 366.86 617.29 363.26 774.4 520.37 770.83 523.97 613.72 366.86"/><polygon class="cls-96" points="617.29 363.26 620.86 359.67 777.97 516.78 774.4 520.37 617.29 363.26"/><polygon class="cls-101" points="620.86 359.67 624.43 356.08 781.54 513.18 777.97 516.78 620.86 359.67"/><polygon class="cls-175" points="624.43 356.08 628 352.48 785.1 509.59 781.54 513.18 624.43 356.08"/><polygon class="cls-121" points="628 352.48 631.57 348.89 788.67 506 785.1 509.59 628 352.48"/><polygon class="cls-84" points="631.57 348.89 635.14 345.3 792.24 502.4 788.67 506 631.57 348.89"/><polygon class="cls-60" points="635.14 345.3 638.71 341.7 795.81 498.81 792.24 502.4 635.14 345.3"/><polygon class="cls-168" points="638.71 341.7 642.28 338.11 799.38 495.22 795.81 498.81 638.71 341.7"/><polygon class="cls-53" points="642.28 338.11 645.85 334.51 802.95 491.62 799.38 495.22 642.28 338.11"/><polygon class="cls-87" points="645.85 334.51 649.42 330.92 806.52 488.03 802.95 491.62 645.85 334.51"/><polygon class="cls-124" points="649.42 330.92 652.99 327.33 810.09 484.44 806.52 488.03 649.42 330.92"/><polygon class="cls-54" points="652.99 327.33 656.55 323.73 813.66 480.84 810.09 484.44 652.99 327.33"/><polygon class="cls-151" points="656.55 323.73 660.12 320.14 817.23 477.25 813.66 480.84 656.55 323.73"/><polygon class="cls-137" points="660.12 320.14 663.69 316.55 820.8 473.66 817.23 477.25 660.12 320.14"/><polygon class="cls-183" points="663.69 316.55 667.26 312.95 824.37 470.06 820.8 473.66 663.69 316.55"/><polygon class="cls-152" points="667.26 312.95 670.83 309.36 827.94 466.47 824.37 470.06 667.26 312.95"/><polygon class="cls-150" points="670.83 309.36 674.4 305.77 831.51 462.87 827.94 466.47 670.83 309.36"/><polygon class="cls-23" points="674.4 305.77 677.97 302.17 835.08 459.28 831.51 462.87 674.4 305.77"/><polygon class="cls-57" points="677.97 302.17 681.54 298.58 838.64 455.69 835.08 459.28 677.97 302.17"/><polygon class="cls-41" points="681.54 298.58 685.11 294.99 842.21 452.09 838.64 455.69 681.54 298.58"/><polygon class="cls-95" points="685.11 294.99 688.68 291.39 845.78 448.5 842.21 452.09 685.11 294.99"/><polygon class="cls-157" points="688.68 291.39 692.25 287.8 849.35 444.91 845.78 448.5 688.68 291.39"/><polygon class="cls-155" points="692.25 287.8 695.82 284.21 852.92 441.31 849.35 444.91 692.25 287.8"/><polygon class="cls-167" points="695.82 284.21 699.39 280.61 856.49 437.72 852.92 441.31 695.82 284.21"/><polygon class="cls-63" points="699.39 280.61 702.96 277.02 860.06 434.13 856.49 437.72 699.39 280.61"/><polygon class="cls-36" points="702.96 277.02 706.53 273.42 863.63 430.53 860.06 434.13 702.96 277.02"/><polygon class="cls-22" points="706.53 273.42 710.09 269.83 867.2 426.94 863.63 430.53 706.53 273.42"/><polygon class="cls-98" points="710.09 269.83 713.66 266.24 870.77 423.35 867.2 426.94 710.09 269.83"/><polygon class="cls-33" points="713.66 266.24 717.23 262.64 874.34 419.75 870.77 423.35 713.66 266.24"/><polygon class="cls-156" points="717.23 262.64 720.8 259.05 877.91 416.16 874.34 419.75 717.23 262.64"/><polygon class="cls-76" points="720.8 259.05 724.37 255.46 881.48 412.57 877.91 416.16 720.8 259.05"/><polygon class="cls-75" points="724.37 255.46 727.94 251.86 885.05 408.97 881.48 412.57 724.37 255.46"/><polygon class="cls-69" points="727.94 251.86 731.51 248.27 888.61 405.38 885.05 408.97 727.94 251.86"/><polygon class="cls-97" points="731.51 248.27 735.08 244.68 892.18 401.78 888.61 405.38 731.51 248.27"/><polygon class="cls-16" points="735.08 244.68 738.65 241.08 895.75 398.19 892.18 401.78 735.08 244.68"/><polygon class="cls-93" points="738.65 241.08 742.22 237.49 899.32 394.6 895.75 398.19 738.65 241.08"/><polygon class="cls-56" points="742.22 237.49 745.79 233.9 902.89 391 899.32 394.6 742.22 237.49"/><polygon class="cls-117" points="745.79 233.9 749.36 230.3 906.46 387.41 902.89 391 745.79 233.9"/><polygon class="cls-164" points="749.36 230.3 752.93 226.71 910.03 383.82 906.46 387.41 749.36 230.3"/><polygon class="cls-7" points="752.93 226.71 756.5 223.12 913.6 380.22 910.03 383.82 752.93 226.71"/><polygon class="cls-10" points="756.5 223.12 760.06 219.52 917.17 376.63 913.6 380.22 756.5 223.12"/><polygon class="cls-162" points="760.06 219.52 763.63 215.93 920.74 373.04 917.17 376.63 760.06 219.52"/><polygon class="cls-88" points="763.63 215.93 767.2 212.33 924.31 369.44 920.74 373.04 763.63 215.93"/><polygon class="cls-17" points="767.2 212.33 770.77 208.74 927.88 365.85 924.31 369.44 767.2 212.33"/><polygon class="cls-25" points="770.77 208.74 774.34 205.15 931.45 362.26 927.88 365.85 770.77 208.74"/><polygon class="cls-170" points="774.34 205.15 777.91 201.55 935.02 358.66 931.45 362.26 774.34 205.15"/><polygon class="cls-165" points="777.91 201.55 781.48 197.96 938.58 355.07 935.02 358.66 777.91 201.55"/><polygon class="cls-123" points="781.48 197.96 785.05 194.37 942.15 351.48 938.58 355.07 781.48 197.96"/><polygon class="cls-8" points="785.05 194.37 788.62 190.77 945.72 347.88 942.15 351.48 785.05 194.37"/><polygon class="cls-9" points="788.62 190.77 792.19 187.18 949.29 344.29 945.72 347.88 788.62 190.77"/><polygon class="cls-80" points="792.19 187.18 795.76 183.59 952.86 340.69 949.29 344.29 792.19 187.18"/><polygon class="cls-77" points="795.76 183.59 799.33 179.99 956.43 337.1 952.86 340.69 795.76 183.59"/><polygon class="cls-116" points="799.33 179.99 802.9 176.4 960 333.51 956.43 337.1 799.33 179.99"/><polygon class="cls-179" points="802.9 176.4 806.47 172.81 963.57 329.91 960 333.51 802.9 176.4"/><polygon class="cls-163" points="806.47 172.81 810.03 169.21 967.14 326.32 963.57 329.91 806.47 172.81"/><polygon class="cls-39" points="810.03 169.21 813.6 165.62 970.71 322.73 967.14 326.32 810.03 169.21"/><polygon class="cls-94" points="813.6 165.62 817.17 162.02 974.28 319.13 970.71 322.73 813.6 165.62"/><polygon class="cls-35" points="817.17 162.02 820.74 158.43 977.85 315.54 974.28 319.13 817.17 162.02"/><polygon class="cls-154" points="820.74 158.43 824.31 154.84 981.42 311.95 977.85 315.54 820.74 158.43"/><polygon class="cls-112" points="824.31 154.84 827.88 151.24 984.99 308.35 981.42 311.95 824.31 154.84"/><polygon class="cls-181" points="827.88 151.24 831.45 147.65 988.56 304.76 984.99 308.35 827.88 151.24"/><polygon class="cls-161" points="831.45 147.65 835.02 144.06 992.12 301.17 988.56 304.76 831.45 147.65"/><polygon class="cls-18" points="835.02 144.06 838.59 140.46 995.69 297.57 992.12 301.17 835.02 144.06"/><polygon class="cls-153" points="838.59 140.46 840.99 138.05 843.34 138.05 998.81 293.52 998.81 294.44 995.69 297.57 838.59 140.46"/><polygon class="cls-108" points="850.5 138.05 998.81 286.36 998.81 293.52 843.34 138.05 850.5 138.05"/><polygon class="cls-31" points="857.66 138.05 998.81 279.2 998.81 286.36 850.5 138.05 857.66 138.05"/><polygon class="cls-40" points="864.82 138.05 998.81 272.03 998.81 279.2 857.66 138.05 864.82 138.05"/><polygon class="cls-144" points="871.99 138.05 998.81 264.87 998.81 272.03 864.82 138.05 871.99 138.05"/><polygon class="cls-178" points="879.15 138.05 998.81 257.71 998.81 264.87 871.99 138.05 879.15 138.05"/><polygon class="cls-145" points="886.31 138.05 998.81 250.55 998.81 257.71 879.15 138.05 886.31 138.05"/><polygon class="cls-44" points="893.48 138.05 998.81 243.38 998.81 250.55 886.31 138.05 893.48 138.05"/><polygon class="cls-70" points="900.64 138.05 998.81 236.22 998.81 243.38 893.48 138.05 900.64 138.05"/><polygon class="cls-14" points="907.8 138.05 998.81 229.06 998.81 236.22 900.64 138.05 907.8 138.05"/><polygon class="cls-15" points="914.96 138.05 998.81 221.89 998.81 229.06 907.8 138.05 914.96 138.05"/><polygon class="cls-159" points="922.13 138.05 998.81 214.73 998.81 221.89 914.96 138.05 922.13 138.05"/><polygon class="cls-159" points="998.81 214.73 922.13 138.05 998.81 138.05 998.81 214.73"/></g></svg>