<?xml version="1.0" encoding="UTF-8"?><svg id="Layer_1" xmlns="http://www.w3.org/2000/svg" viewBox="0 0 256 256"><defs><style>.cls-1,.cls-2{fill:#fff;}.cls-2{opacity:.5;}</style></defs><path class="cls-2" d="M128,.5C57.58,.5,.5,57.58,.5,128s57.08,127.5,127.5,127.5,127.5-57.08,127.5-127.5S198.42,.5,128,.5Zm0,232.85c-58.18,0-105.35-47.17-105.35-105.35S69.82,22.65,128,22.65s105.35,47.17,105.35,105.35-47.17,105.35-105.35,105.35Z"/><path class="cls-1" d="M128,22.65c-58.18,0-105.35,47.17-105.35,105.35s47.17,105.35,105.35,105.35,105.35-47.17,105.35-105.35S186.18,22.65,128,22.65Zm0,185.29c-44.15,0-79.95-35.79-79.95-79.95S83.85,48.05,128,48.05s79.95,35.79,79.95,79.95-35.79,79.95-79.95,79.95Z"/></svg>